<svg xmlns="http://www.w3.org/2000/svg" width="1024" height="1024" viewBox="0 0 1024 1024">
<path d="M 632.62 681.09 C627.75,683.30 626.71,683.34 621.68,681.55 C616.96,679.87 614.60,677.78 612.57,673.51 C611.17,670.55 610.99,655.31 610.94,530.35 C610.90,424.69 610.60,389.67 609.69,387.09 C607.23,380.07 598.09,376.93 591.67,380.90 C585.52,384.70 585.00,387.55 585.00,417.46 C585.00,433.64 584.59,444.96 583.94,446.68 C582.69,450.00 532.84,500.44 528.59,502.68 C526.58,503.74 523.78,504.09 519.45,503.82 C514.02,503.47 512.63,502.93 508.65,499.67 C506.13,497.61 502.37,493.85 500.29,491.31 L 496.50 486.69 L 495.50 434.16 L 493.00 431.36 C488.82,426.68 487.68,426.07 483.00,426.00 L 478.50 425.93 L 441.50 463.39 C421.15,484.00 403.52,501.34 402.32,501.93 C401.11,502.52 398.14,503.00 395.71,503.00 C384.02,503.00 376.04,488.88 381.79,478.38 C384.38,473.64 465.94,391.13 470.21,388.92 C474.75,386.57 485.45,386.32 490.53,388.45 C495.34,390.46 511.67,402.91 521.33,411.93 C527.45,417.65 528.00,419.96 528.00,439.86 L 528.00 457.47 L 553.00 432.53 L 553.04 406.02 C553.08,386.07 553.43,378.54 554.47,375.62 C555.90,371.61 573.30,352.82 581.87,346.04 C586.02,342.76 586.71,342.56 595.59,342.17 C608.30,341.62 610.37,342.74 631.35,361.46 C633.90,363.74 635.91,364.82 637.48,366.35 C643.15,371.89 643.12,383.27 642.87,478.49 C642.83,491.87 642.79,506.90 642.76,523.81 L 642.50 671.66 L 639.62 675.44 C638.03,677.52 634.88,680.06 632.62,681.09 ZM 460.68 681.06 C458.38,682.10 455.60,682.96 454.50,682.96 C451.71,682.96 444.84,679.67 442.79,677.35 C442.25,676.75 441.77,676.23 441.35,675.68 C438.00,671.27 438.00,664.31 438.00,590.34 L 438.00 585.28 L 438.00 502.49 L 452.92 487.24 C461.13,478.86 468.56,472.00 469.44,472.00 C470.88,472.00 471.00,481.08 470.76,571.32 L 470.50 670.65 L 467.68 674.90 C465.91,677.58 463.32,679.86 460.68,681.06 ZM 574.30 681.38 C569.17,683.98 563.56,682.86 558.77,678.30 C557.93,677.50 557.22,676.87 556.60,676.16 C552.99,671.94 552.99,664.63 553.00,600.69 C553.00,598.09 553.00,595.40 553.00,592.62 L 553.00 516.47 L 567.76 501.74 C575.88,493.63 583.08,487.00 583.76,487.00 C585.72,487.00 585.55,669.04 583.60,672.80 C581.85,676.16 578.47,679.27 574.30,681.38 ZM 402.50 681.11 C397.77,683.29 396.70,683.34 391.74,681.57 C386.85,679.82 385.26,678.44 382.93,673.86 C381.09,670.26 381.00,667.40 381.00,613.79 C381.01,559.39 381.07,557.39 382.99,554.24 C385.97,549.36 390.53,547.01 397.00,547.01 C403.86,547.01 408.17,549.45 410.96,554.92 C412.94,558.80 413.00,560.53 413.00,613.90 C413.00,650.41 412.64,669.82 411.93,671.68 C410.42,675.69 407.13,678.97 402.50,681.11 ZM 516.77 681.45 C512.71,683.15 511.76,683.21 507.91,682.04 C503.45,680.69 499.96,677.83 497.94,673.89 C496.09,670.25 496.00,667.56 496.00,614.29 C496.00,563.17 496.15,558.21 497.75,555.02 C500.43,549.68 505.20,547.00 512.00,547.00 C518.80,547.00 523.57,549.68 526.25,555.02 C527.85,558.21 528.00,563.17 528.00,614.30 L 528.00 618.24 C528.00,665.55 528.00,671.92 524.87,675.67 C524.30,676.36 523.63,676.96 522.83,677.70 C521.53,678.91 518.81,680.60 516.77,681.45 Z" fill="#2dd4bf"/>
</svg>