<?xml version="1.0" encoding="UTF-8"?>
<svg version="1.1" xmlns="http://www.w3.org/2000/svg" width="891" height="200">
<path d="M0 0 C3.90496811 1.30165604 5.15414454 3.67623173 7.375 6.9375 C8.26237224 8.20878631 9.15042847 9.47959537 10.0390625 10.75 C10.51375977 11.43320313 10.98845703 12.11640625 11.47753906 12.8203125 C14.19991671 16.71790513 16.97406929 20.57795778 19.75 24.4375 C20.28028809 25.18185303 20.81057617 25.92620605 21.35693359 26.69311523 C24.3097804 30.80268566 27.36270819 34.67042218 30.80957031 38.37915039 C32 40 32 40 32.47949219 42.13842773 C32.73714355 43.05990601 32.73714355 43.05990601 33 44 C33.99 44.33 34.98 44.66 36 45 C37.40242493 47.02239937 38.53598759 49.12813122 39.71875 51.28515625 C40.1415625 51.85105469 40.564375 52.41695312 41 53 C41.99 53 42.98 53 44 53 C44.11859375 52.42121094 44.2371875 51.84242187 44.359375 51.24609375 C46.12985716 45.03861058 50.48713151 40.40791806 55 36 C60.69482672 29.42699907 65.64042549 22.32060085 70.62475586 15.20825195 C79.32011988 2.8162812 79.32011988 2.8162812 82 0 C82.66 0 83.32 0 84 0 C84 29.04 84 58.08 84 88 C78.06 88 72.12 88 66 88 C65.67 76.78 65.34 65.56 65 54 C58.27724611 64.88515434 58.27724611 64.88515434 52 76 C51.34 76 50.68 76 50 76 C49.62875 77.0209375 49.62875 77.0209375 49.25 78.0625 C47.75802092 81.56865083 45.93164489 84.71620368 44 88 C41.75 87.9375 41.75 87.9375 39 87 C37.39140567 84.78068511 36.26633732 82.44534103 35 80 C34.01 79.505 34.01 79.505 33 79 C32.04776184 77.42865963 31.16295465 75.8161789 30.3125 74.1875 C25.49421994 63.99799663 25.49421994 63.99799663 19 55 C18.67 65.89 18.34 76.78 18 88 C12.06 88 6.12 88 0 88 C0 58.96 0 29.92 0 0 Z " fill="#F6F8F9" transform="translate(182,55)"/>
<path d="M0 0 C42.57894737 0 42.57894737 0 52.71875 9.6328125 C59.33082545 16.86071851 60.53335558 22.95165898 60.27734375 32.62890625 C59.68199967 39.86527157 57.15570849 44.77402413 52.234375 50.10546875 C44.36172853 56.78070221 35.7990763 59.1770165 25.75 59.0625 C23.1925 59.041875 20.635 59.02125 18 59 C18 67.91 18 76.82 18 86 C12.06 86 6.12 86 0 86 C0 57.62 0 29.24 0 0 Z M18 18 C18 25.59 18 33.18 18 41 C29.86955568 41.6700085 29.86955568 41.6700085 39.9375 36.3125 C42.35123975 32.43588767 42.58157239 30.48641557 42 26 C41.07703273 22.97937985 40.22360806 22.15887941 37.625 20.3125 C33.07372596 18.03686298 29.3341054 17.88665895 24.25 17.9375 C21.15625 17.9684375 21.15625 17.9684375 18 18 Z " fill="#F8F9FA" transform="translate(113,57)"/>
<path d="M0 0 C4.59868171 3.50638007 7.00455916 6.67916197 7.95703125 12.4921875 C6.19272156 13.83414122 4.42035215 15.16550418 2.64453125 16.4921875 C1.65839844 17.2346875 0.67226562 17.9771875 -0.34375 18.7421875 C-3.04296875 20.4921875 -3.04296875 20.4921875 -6.04296875 20.4921875 C-6.76484375 19.6878125 -7.48671875 18.8834375 -8.23046875 18.0546875 C-11.36969274 15.19450564 -12.93778594 14.63919876 -17.04296875 14.34375 C-20.50286064 14.60053885 -23.58318333 16.03240208 -26.04296875 18.4921875 C-26.54432074 20.86440706 -26.54432074 20.86440706 -26.04296875 23.4921875 C-22.03516266 27.41303922 -17.45227045 29.12394576 -12.35546875 31.1796875 C-3.22880804 35.07023682 4.74787038 39.68641355 9.58203125 48.7421875 C12.11932143 55.64120033 12.41648216 64.06309277 9.45703125 70.8671875 C5.44830636 77.56728246 -0.73290562 82.05549979 -8.04296875 84.4921875 C-18.52605959 87.11296021 -29.78147692 86.05708152 -39.23046875 80.8671875 C-43.80555932 77.95771584 -47.6978417 74.46895033 -50.04296875 69.4921875 C-48.69228558 65.44013799 -46.64719146 64.61670387 -43.10546875 62.3046875 C-42.02394531 61.58925781 -40.94242188 60.87382813 -39.828125 60.13671875 C-37.04296875 58.4921875 -37.04296875 58.4921875 -35.04296875 58.4921875 C-33.37630208 60.15885417 -31.70963542 61.82552083 -30.04296875 63.4921875 C-25.45766323 66.19609962 -20.23106161 66.97942433 -14.97265625 66.17578125 C-12.02023675 65.3913518 -10.22231275 64.6715315 -8.04296875 62.4921875 C-7.45808313 60.12094152 -7.45808313 60.12094152 -8.04296875 57.4921875 C-13.38369682 50.549241 -22.21503396 46.91761894 -29.79296875 42.9296875 C-36.30737922 39.44256189 -41.69542242 36.36346681 -45.04296875 29.4921875 C-47.17009235 22.22701182 -46.42297593 15.67025241 -43.359375 8.78515625 C-39.96744273 2.87695376 -34.42128125 -0.52266714 -28.11328125 -2.80859375 C-18.73901366 -4.94344604 -8.40799021 -5.07057672 0 0 Z " fill="#F6F8F9" transform="translate(92.04296875,59.5078125)"/>
<path d="M0 0 C3.90462781 1.3015426 5.15469805 3.67599917 7.375 6.9375 C8.25565187 8.20242108 9.13721069 9.46671106 10.01953125 10.73046875 C10.49342285 11.41286621 10.96731445 12.09526367 11.45556641 12.79833984 C14.83902289 17.62161056 18.32971739 22.36894882 21.79638672 27.13256836 C22.32893066 27.86741455 22.86147461 28.60226074 23.41015625 29.359375 C23.88590088 30.01389648 24.36164551 30.66841797 24.85180664 31.34277344 C27.30442439 34.88272013 27.04656819 37.25436859 26.87890625 41.5390625 C26.83056641 42.84101562 26.78222656 44.14296875 26.73242188 45.484375 C26.67589606 46.86458804 26.61925392 48.24479632 26.5625 49.625 C26.50927707 51.01300219 26.45653668 52.40102297 26.40429688 53.7890625 C26.27428837 57.19292141 26.13931117 60.59651117 26 64 C23.61117179 61.03455808 21.28563851 58.04751801 19 55 C18.67 65.89 18.34 76.78 18 88 C12.06 88 6.12 88 0 88 C0 58.96 0 29.92 0 0 Z " fill="#F7F8FA" transform="translate(182,55)"/>
<path d="M0 0 C3.76591888 1.68065801 5.1379634 3.27592679 7 7 C7 7.66 7 8.32 7 9 C7.99 9.33 8.98 9.66 10 10 C11.40242493 12.02239937 12.53598759 14.12813122 13.71875 16.28515625 C14.1415625 16.85105469 14.564375 17.41695312 15 18 C15.99 18 16.98 18 18 18 C18.11859375 17.42121094 18.2371875 16.84242187 18.359375 16.24609375 C20.07961146 10.21477688 24.32312301 5.04486658 29 1 C29.66 1 30.32 1 31 1 C31.12476245 5.24998477 31.21487534 9.49896494 31.2746582 13.75024414 C31.29961056 15.1924906 31.33358606 16.63461314 31.37719727 18.07641602 C31.63281468 26.75237178 31.5474124 33.80650085 26 41 C25.34 41 24.68 41 24 41 C23.7525 41.680625 23.505 42.36125 23.25 43.0625 C21.75802092 46.56865083 19.93164489 49.71620368 18 53 C15.75 52.9375 15.75 52.9375 13 52 C11.39140567 49.78068511 10.26633732 47.44534103 9 45 C8.34 44.67 7.68 44.34 7 44 C5.92302883 42.22028372 4.91058313 40.40107721 3.9375 38.5625 C3.41027344 37.57378906 2.88304687 36.58507812 2.33984375 35.56640625 C0.11702054 31.30869532 -0.11751632 28.90901569 -0.09765625 24.0234375 C-0.09553383 22.99556625 -0.09553383 22.99556625 -0.09336853 21.94692993 C-0.08776675 19.75624239 -0.07521406 17.5656567 -0.0625 15.375 C-0.05748522 13.89062648 -0.05292228 12.40625135 -0.04882812 10.921875 C-0.03779677 7.28121685 -0.02053099 3.64061836 0 0 Z " fill="#F6CE2A" transform="translate(208,90)"/>
<path d="M0 0 C9 0 9 0 12.06640625 3.0625 C12.92993385 4.35449549 13.76164802 5.66824614 14.5625 7 C15.21702148 8.00160156 15.21702148 8.00160156 15.88476562 9.0234375 C16.95134215 10.66432446 17.97966182 12.32996841 19 14 C23.00835881 10.21992293 25.44233182 6.67378043 27.88671875 1.79296875 C30 0 30 0 40 0 C40 12.54 40 25.08 40 38 C37.36 38 34.72 38 32 38 C31.505 26.12 31.505 26.12 31 14 C28.20636333 17.89573992 28.20636333 17.89573992 25.43652344 21.80834961 C23.69487494 24.18357604 22.49311051 25.81130975 19.703125 26.87890625 C19.14109375 26.91886719 18.5790625 26.95882812 18 27 C16.68527053 25.37680325 15.37328338 23.751385 14.0625 22.125 C13.33160156 21.22007813 12.60070312 20.31515625 11.84765625 19.3828125 C10 17 10 17 9 15 C8.67 22.59 8.34 30.18 8 38 C5.36 38 2.72 38 0 38 C0 25.46 0 12.92 0 0 Z " fill="#EFF1F5" transform="translate(518,81)"/>
<path d="M0 0 C3.320625 -0.061875 6.64125 -0.12375 10.0625 -0.1875 C11.09511963 -0.21481201 12.12773926 -0.24212402 13.19165039 -0.27026367 C19.65652964 -0.32825863 24.8718886 0.18469974 29.875 4.6875 C31.82824242 8.70249831 32.51184342 12.65557433 31.5625 17.00390625 C30.36627708 20.25953567 29.38832729 21.79229005 26.3125 23.4375 C25.549375 23.623125 24.78625 23.80875 24 24 C26.09064839 27.32955114 27.91939067 29.9212227 30.75 32.6875 C33 35 33 35 33 38 C29.37921507 38.64239733 27.4808936 38.95634595 24 38 C21.14704118 35.36453131 18.82548996 32.57936755 16.45703125 29.50390625 C13.60295825 26.59538353 11.99841929 26.22567055 8 26 C8 29.96 8 33.92 8 38 C5.36 38 2.72 38 0 38 C0 25.46 0 12.92 0 0 Z M8 8 C8 11.63 8 15.26 8 19 C15.31093474 19.44889074 15.31093474 19.44889074 22 17 C23.65022176 14.70835053 23.65022176 14.70835053 24 12 C23.04135804 9.72357624 23.04135804 9.72357624 21 8 C17.80197224 7.51533634 17.80197224 7.51533634 14.3125 7.75 C13.13300781 7.78609375 11.95351563 7.8221875 10.73828125 7.859375 C9.38283203 7.92898437 9.38283203 7.92898437 8 8 Z " fill="#EDF0F3" transform="translate(699,81)"/>
<path d="M0 0 C23.40681818 0 23.40681818 0 29.05859375 4.71875 C29.74115234 5.60046875 29.74115234 5.60046875 30.4375 6.5 C30.91058594 7.0878125 31.38367188 7.675625 31.87109375 8.28125 C35.11118052 13.21425408 34.50822436 19.35226728 34 25 C32.66534223 29.73612843 30.78706238 32.3735626 26.9375 35.4375 C23.10061478 37.47839639 20.39507156 38.12360649 16.11328125 38.09765625 C15.26805908 38.09515869 14.42283691 38.09266113 13.55200195 38.09008789 C12.48296631 38.08098389 11.41393066 38.07187988 10.3125 38.0625 C5.2078125 38.0315625 5.2078125 38.0315625 0 38 C0 25.46 0 12.92 0 0 Z M8 8 C8 15.26 8 22.52 8 30 C15.96121119 30.65543244 15.96121119 30.65543244 23.1875 28.125 C26.28374781 24.49491636 26.27831463 21.88896236 26.21875 17.2578125 C25.91889867 14.16291845 25.00312491 12.36082578 23 10 C18.10557281 7.18010841 18.10557281 7.18010841 8 8 Z " fill="#EEF0F4" transform="translate(787,81)"/>
<path d="M0 0 C22.46153846 0 22.46153846 0 28.875 5.4375 C34.09786652 11.73566257 33.72549932 18.04671368 33 26 C31.4012344 31.4230856 27.86326328 34.30968414 23 37 C20.11734851 37.96088383 18.32337729 38.11670941 15.33203125 38.09765625 C14.52741455 38.09515869 13.72279785 38.09266113 12.89379883 38.09008789 C11.36855591 38.07643188 11.36855591 38.07643188 9.8125 38.0625 C4.9553125 38.0315625 4.9553125 38.0315625 0 38 C0 25.46 0 12.92 0 0 Z M8 8 C8 15.26 8 22.52 8 30 C17.92190474 30.80642366 17.92190474 30.80642366 22.0625 28.5 C24.65571729 25.15391318 25.81789495 22.24383943 26 18 C24.91408668 14.10348749 23.88521182 11.83156262 20.9375 9.0625 C16.95333125 7.43310653 16.95333125 7.43310653 8 8 Z " fill="#F0F2F5" transform="translate(642,81)"/>
<path d="M0 0 C2.97 0 5.94 0 9 0 C11.35200756 4.99139867 13.68308641 9.99221484 16 15 C16.40089844 15.86625 16.80179688 16.7325 17.21484375 17.625 C18.46253351 20.33027126 19.70114963 23.03953012 20.9375 25.75 C21.3389624 26.61915039 21.7404248 27.48830078 22.15405273 28.38378906 C22.52473877 29.20073242 22.8954248 30.01767578 23.27734375 30.859375 C23.60984131 31.58608398 23.94233887 32.31279297 24.28491211 33.06152344 C25 35 25 35 25 38 C19.66912345 38.43695709 19.66912345 38.43695709 17 38 C14.97170628 35.59140121 14 34.16955691 14 31 C7.73 31 1.46 31 -5 31 C-5.495 33.475 -5.495 33.475 -6 36 C-6.33 36.66 -6.66 37.32 -7 38 C-9.97 38 -12.94 38 -16 38 C-13.46523288 29.66363593 -9.91300395 21.85085526 -6.3125 13.9375 C-5.69946644 12.5815625 -5.08683305 11.225444 -4.47460938 9.86914062 C-2.98767883 6.57732842 -1.49535452 3.28799559 0 0 Z M4 11 C3.16209211 12.78953185 2.32980604 14.58169695 1.5 16.375 C1.0359375 17.37273437 0.571875 18.37046875 0.09375 19.3984375 C-1.1291873 21.83692626 -1.1291873 21.83692626 -1 24 C2.96 24 6.92 24 11 24 C10.21658881 22.01755108 9.42302514 20.03911141 8.625 18.0625 C8.18414063 16.96035156 7.74328125 15.85820313 7.2890625 14.72265625 C6.28958568 11.88769814 6.28958568 11.88769814 4 11 Z " fill="#EFF1F4" transform="translate(595,81)"/>
<path d="M0 0 C1.92326054 1.52729514 2.6512574 3.02249261 3.59375 5.265625 C1.40625 6.890625 1.40625 6.890625 -1.40625 8.265625 C-4.09375 7.515625 -4.09375 7.515625 -6.40625 6.265625 C-9.17725394 4.88012303 -11.3397206 5.0778783 -14.40625 5.265625 C-15.39625 5.925625 -16.38625 6.585625 -17.40625 7.265625 C-17.40625 8.255625 -17.40625 9.245625 -17.40625 10.265625 C-16.38144531 10.51957031 -15.35664063 10.77351563 -14.30078125 11.03515625 C-12.93999653 11.38239097 -11.57932535 11.73007084 -10.21875 12.078125 C-9.54521484 12.24376953 -8.87167969 12.40941406 -8.17773438 12.58007812 C-3.33442394 13.83225107 1.15368641 15.04007217 3.96875 19.390625 C4.87083568 23.54021915 4.8708664 27.19066401 3.59375 31.265625 C0.97942272 34.67631659 -2.20926392 36.48783492 -6.40625 37.265625 C-13.37055308 37.92528725 -19.76458114 37.82873952 -25.40625 33.265625 C-27.40625 30.015625 -27.40625 30.015625 -28.40625 27.265625 C-26.15625 25.640625 -26.15625 25.640625 -23.40625 24.265625 C-20.89642347 25.04994579 -19.33763147 26.32011618 -17.28125 27.953125 C-12.94411976 29.93311924 -9.0147221 29.00834963 -4.40625 28.265625 C-4.73625 26.285625 -5.06625 24.305625 -5.40625 22.265625 C-6.51484375 22.02328125 -7.6234375 21.7809375 -8.765625 21.53125 C-10.22934243 21.19346906 -11.69287469 20.85488502 -13.15625 20.515625 C-14.25066406 20.27972656 -14.25066406 20.27972656 -15.3671875 20.0390625 C-19.79681336 18.99206002 -22.49992941 17.99393525 -25.40625 14.265625 C-27.01795388 11.04221723 -27.00167551 7.75120581 -26.40625 4.265625 C-19.7258585 -4.51431811 -9.29731107 -4.80107047 0 0 Z " fill="#EDF0F3" transform="translate(344.40625,82.734375)"/>
<path d="M0 0 C3.3 -0.0825 6.6 -0.165 10 -0.25 C11.02351563 -0.28641602 12.04703125 -0.32283203 13.1015625 -0.36035156 C19.15266517 -0.43294606 24.06111435 0.28331323 29 4 C32.03184052 8.68557171 32.41990546 12.54704345 31.578125 17.91796875 C30.53732617 21.66625104 28.52139953 23.9677502 25.34765625 26.12109375 C22.00445189 27.37270936 18.7647103 27.21137284 15.25 27.125 C14.20392578 27.11146484 14.20392578 27.11146484 13.13671875 27.09765625 C11.42433042 27.07419888 9.71211996 27.03833104 8 27 C8 30.63 8 34.26 8 38 C5.36 38 2.72 38 0 38 C0 25.46 0 12.92 0 0 Z M8 8 C8 11.96 8 15.92 8 20 C9.8975 20.0825 11.795 20.165 13.75 20.25 C15.35101563 20.31960937 15.35101563 20.31960937 16.984375 20.390625 C20.09369958 20.24230936 20.09369958 20.24230936 22.39453125 18.1796875 C24.31796466 16.03165813 24.31796466 16.03165813 23.9375 12.875 C23.23305313 9.70825068 23.23305313 9.70825068 20 8 C15.98500069 7.73125841 12.02862593 7.91336288 8 8 Z " fill="#EEF1F4" transform="translate(405,81)"/>
<path d="M0 0 C2.64 0 5.28 0 8 0 C8 12.54 8 25.08 8 38 C5.36 38 2.72 38 0 38 C0 25.46 0 12.92 0 0 Z " fill="#E9ECF1" transform="translate(754,81)"/>
<path d="M0 0 C0.66 0 1.32 0 2 0 C2 42.24 2 84.48 2 128 C1.34 128 0.68 128 0 128 C0 85.76 0 43.52 0 0 Z " fill="#B8C3D1" transform="translate(290,36)"/>
<path d="M0 0 C1 1 1 1 1.125 4 C1 7 1 7 0 8 C-3 8.125 -3 8.125 -6 8 C-7 7 -7 7 -7.0625 3.9375 C-7.041875 2.968125 -7.02125 1.99875 -7 1 C-4.51588385 -0.24205807 -2.74800896 -0.14092354 0 0 Z " fill="#E5E9EE" transform="translate(461,111)"/>
<path d="M0 0 C2.33944736 0.28730055 4.6739143 0.61936779 7 1 C7.04254356 2.99954746 7.04080783 5.00041636 7 7 C6 8 6 8 3 8.125 C0 8 0 8 -1 7 C-1.125 4 -1.125 4 -1 1 C-0.67 0.67 -0.34 0.34 0 0 Z " fill="#E6E9EE" transform="translate(373,111)"/>
<path d="M0 0 C0.99 0.33 1.98 0.66 3 1 C2.0409375 1.7734375 2.0409375 1.7734375 1.0625 2.5625 C-1.55791681 5.65935623 -1.69389817 8.02067623 -2 12 C-2.33 12 -2.66 12 -3 12 C-3.36923077 4.61538462 -3.36923077 4.61538462 -1.5 1.5 C-1.005 1.005 -0.51 0.51 0 0 Z " fill="#C9D1DC" transform="translate(321,83)"/>
<path d="M0 0 C0.99 0.33 1.98 0.66 3 1 C-0.465 3.97 -0.465 3.97 -4 7 C-3.04065919 3.16263678 -2.76390737 2.40339772 0 0 Z " fill="#D6DCE5" transform="translate(54,62)"/>
</svg>
