<svg width="503" height="95" viewBox="0 0 503 95" fill="none" xmlns="http://www.w3.org/2000/svg">
<path d="M85.824 74V24.085H104.45C107.845 24.085 110.837 24.7103 113.428 25.961C116.063 27.167 118.118 28.9537 119.592 31.321C121.066 33.6437 121.803 36.48 121.803 39.83C121.803 43.1353 121.044 45.9717 119.525 48.339C118.051 50.6617 116.019 52.4483 113.428 53.699C110.837 54.9497 107.845 55.575 104.45 55.575H94.936V74H85.824ZM94.936 47.535H104.584C106.237 47.535 107.666 47.2223 108.872 46.597C110.078 45.927 111.016 45.0113 111.686 43.85C112.356 42.6887 112.691 41.3487 112.691 39.83C112.691 38.2667 112.356 36.9267 111.686 35.81C111.016 34.6487 110.078 33.7553 108.872 33.13C107.666 32.46 106.237 32.125 104.584 32.125H94.936V47.535ZM137.428 74.804C134.882 74.804 132.671 74.3797 130.795 73.531C128.919 72.6823 127.467 71.4763 126.44 69.913C125.413 68.305 124.899 66.4513 124.899 64.352C124.899 62.342 125.346 60.5553 126.239 58.992C127.132 57.384 128.517 56.044 130.393 54.972C132.269 53.9 134.636 53.1407 137.495 52.694L149.421 50.751V57.451L139.17 59.193C137.428 59.5057 136.133 60.064 135.284 60.868C134.435 61.672 134.011 62.7217 134.011 64.017C134.011 65.2677 134.48 66.2727 135.418 67.032C136.401 67.7467 137.607 68.104 139.036 68.104C140.867 68.104 142.475 67.7243 143.86 66.965C145.289 66.161 146.384 65.0667 147.143 63.682C147.947 62.2973 148.349 60.7787 148.349 59.126V49.746C148.349 48.1827 147.724 46.8873 146.473 45.86C145.267 44.788 143.659 44.252 141.649 44.252C139.773 44.252 138.098 44.7657 136.624 45.793C135.195 46.7757 134.145 48.0933 133.475 49.746L126.306 46.262C127.021 44.3413 128.137 42.6887 129.656 41.304C131.219 39.8747 133.051 38.758 135.15 37.954C137.249 37.15 139.527 36.748 141.984 36.748C144.977 36.748 147.612 37.3063 149.89 38.423C152.168 39.495 153.932 41.0137 155.183 42.979C156.478 44.8997 157.126 47.1553 157.126 49.746V74H148.818V67.769L150.694 67.635C149.756 69.1983 148.639 70.516 147.344 71.588C146.049 72.6153 144.575 73.4193 142.922 74C141.269 74.536 139.438 74.804 137.428 74.804ZM169.66 88.74C168.678 88.74 167.717 88.6507 166.779 88.472C165.841 88.338 164.993 88.07 164.233 87.668V80.365C164.814 80.499 165.506 80.633 166.31 80.767C167.159 80.901 167.941 80.968 168.655 80.968C170.665 80.968 172.117 80.499 173.01 79.561C173.948 78.6677 174.775 77.4617 175.489 75.943L177.901 70.315L177.767 77.685L161.888 37.552H171.335L182.457 67.166H179.107L190.162 37.552H199.676L183.797 77.685C182.859 80.0077 181.72 81.9953 180.38 83.648C179.04 85.3007 177.477 86.5513 175.69 87.4C173.948 88.2933 171.938 88.74 169.66 88.74ZM201.146 74L218.365 24.085H230.157L247.376 74H237.46L233.909 63.28H214.613L210.995 74H201.146ZM217.226 55.24H231.296L222.988 30.383H225.534L217.226 55.24ZM252.194 74V37.552H260.435V44.721L259.765 43.448C260.614 41.2593 261.999 39.6067 263.919 38.49C265.885 37.3287 268.163 36.748 270.753 36.748C273.433 36.748 275.801 37.3287 277.855 38.49C279.955 39.6513 281.585 41.2817 282.746 43.381C283.908 45.4357 284.488 47.8253 284.488 50.55V74H275.711V52.627C275.711 51.019 275.399 49.6343 274.773 48.473C274.148 47.3117 273.277 46.4183 272.16 45.793C271.088 45.123 269.815 44.788 268.341 44.788C266.912 44.788 265.639 45.123 264.522 45.793C263.406 46.4183 262.535 47.3117 261.909 48.473C261.284 49.6343 260.971 51.019 260.971 52.627V74H252.194ZM302.965 74.804C300.419 74.804 298.208 74.3797 296.332 73.531C294.456 72.6823 293.005 71.4763 291.977 69.913C290.95 68.305 290.436 66.4513 290.436 64.352C290.436 62.342 290.883 60.5553 291.776 58.992C292.67 57.384 294.054 56.044 295.93 54.972C297.806 53.9 300.174 53.1407 303.032 52.694L314.958 50.751V57.451L304.707 59.193C302.965 59.5057 301.67 60.064 300.821 60.868C299.973 61.672 299.548 62.7217 299.548 64.017C299.548 65.2677 300.017 66.2727 300.955 67.032C301.938 67.7467 303.144 68.104 304.573 68.104C306.405 68.104 308.013 67.7243 309.397 66.965C310.827 66.161 311.921 65.0667 312.68 63.682C313.484 62.2973 313.886 60.7787 313.886 59.126V49.746C313.886 48.1827 313.261 46.8873 312.01 45.86C310.804 44.788 309.196 44.252 307.186 44.252C305.31 44.252 303.635 44.7657 302.161 45.793C300.732 46.7757 299.682 48.0933 299.012 49.746L291.843 46.262C292.558 44.3413 293.675 42.6887 295.193 41.304C296.757 39.8747 298.588 38.758 300.687 37.954C302.787 37.15 305.065 36.748 307.521 36.748C310.514 36.748 313.149 37.3063 315.427 38.423C317.705 39.495 319.47 41.0137 320.72 42.979C322.016 44.8997 322.663 47.1553 322.663 49.746V74H314.355V67.769L316.231 67.635C315.293 69.1983 314.177 70.516 312.881 71.588C311.586 72.6153 310.112 73.4193 308.459 74C306.807 74.536 304.975 74.804 302.965 74.804ZM330.775 74V23.281H339.552V74H330.775ZM352.078 88.74C351.096 88.74 350.135 88.6507 349.197 88.472C348.259 88.338 347.411 88.07 346.651 87.668V80.365C347.232 80.499 347.924 80.633 348.728 80.767C349.577 80.901 350.359 80.968 351.073 80.968C353.083 80.968 354.535 80.499 355.428 79.561C356.366 78.6677 357.193 77.4617 357.907 75.943L360.319 70.315L360.185 77.685L344.306 37.552H353.753L364.875 67.166H361.525L372.58 37.552H382.094L366.215 77.685C365.277 80.0077 364.138 81.9953 362.798 83.648C361.458 85.3007 359.895 86.5513 358.108 87.4C356.366 88.2933 354.356 88.74 352.078 88.74ZM403.53 74.402C399.421 74.402 396.227 73.2853 393.949 71.052C391.716 68.774 390.599 65.5803 390.599 61.471V45.391H384.301V37.552H384.971C386.758 37.552 388.142 37.083 389.125 36.145C390.108 35.207 390.599 33.8447 390.599 32.058V29.244H399.376V37.552H407.751V45.391H399.376V61.002C399.376 62.208 399.577 63.2353 399.979 64.084C400.426 64.9327 401.096 65.5803 401.989 66.027C402.927 66.4737 404.111 66.697 405.54 66.697C405.853 66.697 406.21 66.6747 406.612 66.63C407.059 66.5853 407.483 66.5407 407.885 66.496V74C407.26 74.0893 406.545 74.1787 405.741 74.268C404.937 74.3573 404.2 74.402 403.53 74.402ZM414.591 74V37.552H423.368V74H414.591ZM414.591 33.465V24.085H423.368V33.465H414.591ZM449.026 74.804C445.408 74.804 442.147 73.9777 439.244 72.325C436.385 70.6277 434.129 68.3497 432.477 65.491C430.824 62.5877 429.998 59.327 429.998 55.709C429.998 52.091 430.824 48.8527 432.477 45.994C434.129 43.1353 436.385 40.8797 439.244 39.227C442.147 37.5743 445.408 36.748 449.026 36.748C451.616 36.748 454.028 37.217 456.262 38.155C458.495 39.0483 460.416 40.299 462.024 41.907C463.676 43.4703 464.86 45.3463 465.575 47.535L457.87 50.885C457.2 49.0537 456.061 47.5797 454.453 46.463C452.889 45.3463 451.08 44.788 449.026 44.788C447.105 44.788 445.385 45.257 443.867 46.195C442.393 47.133 441.231 48.4283 440.383 50.081C439.534 51.7337 439.11 53.632 439.11 55.776C439.11 57.92 439.534 59.8183 440.383 61.471C441.231 63.1237 442.393 64.419 443.867 65.357C445.385 66.295 447.105 66.764 449.026 66.764C451.125 66.764 452.956 66.2057 454.52 65.089C456.083 63.9723 457.2 62.476 457.87 60.6L465.575 64.084C464.86 66.1387 463.699 67.9923 462.091 69.645C460.483 71.253 458.562 72.526 456.329 73.464C454.095 74.3573 451.661 74.804 449.026 74.804ZM486.103 74.804C482.217 74.804 478.823 73.8883 475.919 72.057C473.061 70.181 471.095 67.6573 470.023 64.486L476.589 61.337C477.527 63.3917 478.823 64.9997 480.475 66.161C482.173 67.3223 484.049 67.903 486.103 67.903C487.711 67.903 488.984 67.5457 489.922 66.831C490.86 66.1163 491.329 65.1783 491.329 64.017C491.329 63.3023 491.128 62.7217 490.726 62.275C490.369 61.7837 489.855 61.3817 489.185 61.069C488.56 60.7117 487.868 60.4213 487.108 60.198L481.145 58.523C478.063 57.6297 475.718 56.2673 474.11 54.436C472.547 52.6047 471.765 50.4383 471.765 47.937C471.765 45.7037 472.324 43.7607 473.44 42.108C474.602 40.4107 476.187 39.093 478.197 38.155C480.252 37.217 482.597 36.748 485.232 36.748C488.672 36.748 491.709 37.5743 494.344 39.227C496.98 40.8797 498.856 43.2023 499.972 46.195L493.272 49.344C492.647 47.6913 491.597 46.3737 490.123 45.391C488.649 44.4083 486.997 43.917 485.165 43.917C483.691 43.917 482.53 44.252 481.681 44.922C480.833 45.592 480.408 46.463 480.408 47.535C480.408 48.205 480.587 48.7857 480.944 49.277C481.302 49.7683 481.793 50.1703 482.418 50.483C483.088 50.7957 483.848 51.086 484.696 51.354L490.525 53.096C493.518 53.9893 495.818 55.3293 497.426 57.116C499.079 58.9027 499.905 61.0913 499.905 63.682C499.905 65.8707 499.325 67.8137 498.163 69.511C497.002 71.1637 495.394 72.459 493.339 73.397C491.285 74.335 488.873 74.804 486.103 74.804Z" fill="url(#paint0_linear_30_2)"/>
<path d="M91.8403 91.1256C90.169 91.6992 89.8121 91.7096 88.086 91.245C86.4662 90.809 85.6563 90.2665 84.9597 89.1582C84.4792 88.39 84.4174 84.4344 84.4003 52.001C84.3866 24.5769 84.2836 15.4874 83.9713 14.8178C83.1271 12.9957 79.9905 12.1807 77.7873 13.2111C75.6768 14.1974 75.4983 14.9371 75.4983 22.7003C75.4983 26.8998 75.3576 29.8379 75.1346 30.2844C74.7056 31.1461 57.5984 44.2378 56.1399 44.8192C55.4501 45.0943 54.4892 45.1852 53.0033 45.1151C51.1398 45.0243 50.6628 44.8841 49.297 44.038C48.4322 43.5033 47.1418 42.5274 46.428 41.8681L45.1274 40.669L44.7842 27.0348L43.9263 26.3081C42.4918 25.0934 42.1006 24.935 40.4945 24.9169L38.9503 24.8987L26.2528 34.6215C19.2692 39.9708 13.219 44.4714 12.8072 44.6245C12.392 44.7777 11.3727 44.9023 10.5388 44.9023C6.52713 44.9023 3.7886 41.2374 5.76185 38.5121C6.65067 37.2819 34.64 15.8663 36.1053 15.2927C37.6633 14.6828 41.3353 14.6179 43.0786 15.1707C44.7293 15.6924 50.3334 18.9238 53.6484 21.265C55.7487 22.7496 55.9374 23.3492 55.9374 28.5142V33.0849L64.5168 26.6117L64.5305 19.731C64.5442 14.553 64.6643 12.5986 65.0212 11.8407C65.512 10.7999 71.4832 5.92296 74.4242 4.16321C75.8484 3.31188 76.0852 3.25998 79.1326 3.15875C83.4943 3.016 84.2047 3.30669 91.4045 8.16547C92.2796 8.75725 92.9693 9.03757 93.5081 9.43468C95.4539 10.8726 95.4436 13.8263 95.3578 38.5407C95.3441 42.0135 95.3304 45.9145 95.3201 50.3035L95.2309 88.678L94.2425 89.6592C93.6969 90.199 92.6159 90.8583 91.8403 91.1256ZM32.8349 91.1178C32.0456 91.3878 31.0916 91.611 30.7141 91.611C29.7566 91.611 27.399 90.757 26.6955 90.1549C26.5102 89.9992 26.3455 89.8642 26.2013 89.7214C25.0517 88.5768 25.0517 86.7704 25.0517 67.5714V66.2581V44.7699L30.1719 40.8117C32.9893 38.6367 35.5391 36.8562 35.8411 36.8562C36.3353 36.8562 36.3764 39.2129 36.2941 62.6348L36.2049 88.4159L35.2371 89.519C34.6297 90.2146 33.7409 90.8064 32.8349 91.1178ZM71.8264 91.2009C70.0659 91.8757 68.1407 91.585 66.4969 90.4015C66.2086 90.1938 65.9649 90.0303 65.7522 89.846C64.5133 88.7507 64.5133 86.8534 64.5168 70.2578C64.5168 69.5829 64.5168 68.8847 64.5168 68.1632V48.3984L69.582 44.5752C72.3686 42.4703 74.8394 40.7495 75.0728 40.7495C75.7454 40.7495 75.6871 87.998 75.0179 88.9739C74.4173 89.846 73.2574 90.6532 71.8264 91.2009ZM12.869 91.1308C11.2458 91.6966 10.8786 91.7096 9.17643 91.2502C7.49831 90.796 6.95266 90.4378 6.15307 89.2491C5.52163 88.3147 5.49074 87.5724 5.49074 73.6579C5.49417 59.5383 5.51476 59.0192 6.17366 58.2016C7.19632 56.935 8.7612 56.3251 10.9815 56.3251C13.3357 56.3251 14.8148 56.9584 15.7722 58.3781C16.4517 59.3852 16.4723 59.8342 16.4723 73.6864C16.4723 83.1626 16.3488 88.2005 16.1051 88.6832C15.5869 89.724 14.4579 90.5754 12.869 91.1308ZM52.0836 91.2191C50.6903 91.6603 50.3642 91.6759 49.043 91.3722C47.5125 91.0218 46.3148 90.2795 45.6216 89.2569C44.9867 88.3121 44.9558 87.6139 44.9558 73.7876C44.9558 60.5194 45.0073 59.2321 45.5564 58.4041C46.4761 57.0181 48.113 56.3225 50.4466 56.3225C52.7802 56.3225 54.4171 57.0181 55.3368 58.4041C55.8859 59.2321 55.9374 60.5194 55.9374 73.7902V74.8129C55.9374 87.0922 55.9374 88.7455 54.8633 89.7188C54.6676 89.8979 54.4377 90.0537 54.1632 90.2457C53.7171 90.5598 52.7836 90.9984 52.0836 91.2191Z" fill="#5B66E2"/>
<defs>
<linearGradient id="paint0_linear_30_2" x1="81" y1="46.5" x2="503" y2="46.5" gradientUnits="userSpaceOnUse">
<stop offset="0.447115" stop-color="#5B66E2"/>
<stop offset="0.975962" stop-color="#67E8F9"/>
</linearGradient>
</defs>
</svg>
